<svg id="Слой_1" data-name="Слой 1" xmlns="http://www.w3.org/2000/svg" viewBox="0 0 640.91 394.02"><defs><style>.cls-1{fill:#fff;}.cls-2,.cls-3,.cls-4,.cls-5,.cls-6,.cls-7{fill:none;stroke:#fff;stroke-miterlimit:10;}.cls-2{stroke-width:2px;}.cls-3{stroke-width:1.3px;}.cls-4{stroke-width:2.6px;}.cls-5{stroke-width:3.4px;}.cls-6{stroke-width:2.2px;}.cls-7{stroke-width:3.5px;}</style></defs><path class="cls-1" d="M39,262.8V267H5.1v69.3H0V262.8Z" transform="translate(0 0)"/><path class="cls-1" d="M100.6,262.8v4.1H61v30.5h39.5v4.1H61v30.6h39.5v4.1H56V262.7l44.6.1Z" transform="translate(0 0)"/><path class="cls-1" d="M181.8,272.8a38.67,38.67,0,0,1,0,53.3,35.26,35.26,0,0,1-49.9,1.4l-1.4-1.4a38.67,38.67,0,0,1,0-53.3,35.26,35.26,0,0,1,49.9-1.4Zm-25.7-6.9a30.86,30.86,0,0,0-22.8,9.8,34.44,34.44,0,0,0,0,47.4,31.31,31.31,0,0,0,44.3,1.3h0l1.3-1.3a34.44,34.44,0,0,0,0-47.4A30.86,30.86,0,0,0,156.1,265.9Z" transform="translate(0 0)"/><path class="cls-1" d="M218.2,262.8l33.5,47.8,33.4-47.8h5.7l-.2.3v73.2h-5v-66l-33.9,48.4-34-48.4v66h-5V263.1l-.2-.3Z" transform="translate(0 0)"/><path class="cls-1" d="M357.5,262.8v4.1H318v30.5h39.5v4.1H318v30.6h39.5v4.1H313V262.7l44.5.1Z" transform="translate(0 0)"/><path class="cls-1" d="M400.1,266.9v69.4h-5V266.9H372.5v-4.1h50.1v4.1Z" transform="translate(0 0)"/><path class="cls-1" d="M444.2,310.8v25.5h-5V262.8h23.4a32.26,32.26,0,0,1,17.3,7c5.7,4.7,8.5,10.3,8.5,17s-2.8,12.3-8.5,17a31.31,31.31,0,0,1-20.5,7Zm0-43.8v39.6h15.2a25.64,25.64,0,0,0,17-5.8c4.7-3.9,7-8.5,7-14s-2.3-10.1-7-14a26.17,26.17,0,0,0-17-5.8Z" transform="translate(0 0)"/><path class="cls-1" d="M574.3,262.8v73.5h-5V269.5l-57.9,66.8h-7.8V262.8h5.1v68.4l59.2-68.4Z" transform="translate(0 0)"/><path class="cls-1" d="M599.3,336.2h-6.2l20.5-26.1a30.72,30.72,0,0,1-13.5-6.4c-5.7-4.7-8.5-10.3-8.5-17s2.8-12.3,8.5-17a32.58,32.58,0,0,1,17.3-7h23.4v73.5h-5.1V310.7H619.1ZM620.7,267a25.64,25.64,0,0,0-17,5.8c-4.7,3.8-7,8.5-7,14s2.4,10.2,7,14a25.64,25.64,0,0,0,17,5.8h15.1V267Z" transform="translate(0 0)"/><line class="cls-2" y1="353.9" x2="640.9" y2="356"/><path class="cls-1" d="M173.4,388.2h3v.2a4.78,4.78,0,0,1-1,2.8c-1.3,1.9-3.6,2.8-6.9,2.8-3.7,0-6.5-1.3-8.3-3.8a16.7,16.7,0,0,1,0-17.5c1.9-2.5,4.7-3.8,8.4-3.8,3.3,0,5.6.9,6.9,2.8a4.78,4.78,0,0,1,1,2.8v.2h-3v-.2a2.88,2.88,0,0,0-1.6-2.6,7.13,7.13,0,0,0-9.2,2.6,15.68,15.68,0,0,0,0,13.7,6.24,6.24,0,0,0,6,3.3,7.11,7.11,0,0,0,3.2-.7,2.63,2.63,0,0,0,1.5-2.6Z" transform="translate(0 0)"/><path class="cls-1" d="M188.9,393.3V372.2h-8.5v-2.6h20.1v2.6h-8.4v21.1Z" transform="translate(0 0)"/><path class="cls-1" d="M208.9,393.3h-3.2V369.6h7a13.38,13.38,0,0,1,5.6.8c2.2,1,3.3,3,3.3,5.7a6.89,6.89,0,0,1-2.8,5.9,10.71,10.71,0,0,1-6.7,1.9H209v9.4Zm0-11.7h2.2a9.65,9.65,0,0,0,5-1.1,4.84,4.84,0,0,0,2-4.3,4,4,0,0,0-1.5-3.4,7.62,7.62,0,0,0-3.9-.8H209v9.6Z" transform="translate(0 0)"/><path class="cls-1" d="M237,394a9.48,9.48,0,0,1-8.2-3.9,16.35,16.35,0,0,1,0-17.3,10.59,10.59,0,0,1,16.4,0,16.35,16.35,0,0,1,0,17.3A9.48,9.48,0,0,1,237,394Zm0-2.4a6.29,6.29,0,0,0,5.8-3.5,15.71,15.71,0,0,0,0-13.4A6.47,6.47,0,0,0,234,372h0a6.39,6.39,0,0,0-2.7,2.7,15.71,15.71,0,0,0,0,13.4A6,6,0,0,0,237,391.6Z" transform="translate(0 0)"/><path class="cls-1" d="M272.3,393.3h-3.2l.1-19.3-12.3,19.3h-3.1V369.6H257l-.2,19.4L269,369.6h3.2Z" transform="translate(0 0)"/><path class="cls-1" d="M286,393.3V372.2h-8.5v-2.6h20.1v2.6h-8.4v21.1Z" transform="translate(0 0)"/><path class="cls-1" d="M302.8,393.3V369.6h14.1v2.6H306v7.5h9.5v2.4H306v8.6h11.7v2.6Z" transform="translate(0 0)"/><path class="cls-1" d="M321.8,390.8a13.55,13.55,0,0,0,2,.2,3.25,3.25,0,0,0,3.3-2.3,12.39,12.39,0,0,0,.5-4.3V369.6h14.6v23.7h-3.3V372.2h-8.1v12.2q0,9-6.6,9a11.34,11.34,0,0,1-2.5-.3Z" transform="translate(0 0)"/><path class="cls-1" d="M365.2,386.8q0,4.2-3.3,5.7a15.22,15.22,0,0,1-5.6.8h-7.1V369.6h3.3v9.3h3.3a11.18,11.18,0,0,1,6.7,1.9A7.39,7.39,0,0,1,365.2,386.8Zm-3.3-.2a4.84,4.84,0,0,0-2-4.3,9.65,9.65,0,0,0-5-1.1h-2.4v9.6h3.9a7,7,0,0,0,4-.9A3.43,3.43,0,0,0,361.9,386.6Z" transform="translate(0 0)"/><path class="cls-1" d="M386.1,388.2h3v.2a4.78,4.78,0,0,1-1,2.8c-1.3,1.9-3.6,2.8-6.9,2.8-3.7,0-6.5-1.3-8.3-3.8a16.7,16.7,0,0,1,0-17.5c1.9-2.5,4.7-3.8,8.4-3.8,3.3,0,5.6.9,6.9,2.8a4.78,4.78,0,0,1,1,2.8v.2h-3v-.2a2.88,2.88,0,0,0-1.6-2.6,7.13,7.13,0,0,0-9.2,2.6,15.68,15.68,0,0,0,0,13.7,6.24,6.24,0,0,0,6,3.3,7.11,7.11,0,0,0,3.2-.7,2.88,2.88,0,0,0,1.6-2.6Z" transform="translate(0 0)"/><path class="cls-1" d="M401.6,393.3V372.2h-8.5v-2.6h20.1v2.6h-8.3v21.1Z" transform="translate(0 0)"/><path class="cls-1" d="M429.7,380.8c3.8.9,5.6,2.9,5.6,6a6.06,6.06,0,0,1-3.5,5.6c-1.1.6-3.1.9-5.8.9h-7.5V369.6h6.6a20.75,20.75,0,0,1,6.1.6,4.53,4.53,0,0,1,3.1,4.5C434.3,377.3,432.8,379.3,429.7,380.8Zm-8-.9h3.1a7.41,7.41,0,0,0,3.6-.6,5.19,5.19,0,0,0,1.9-1.7,4,4,0,0,0,.7-2.4c0-2.1-1.7-3.2-5.2-3.2h-4.2v7.9Zm0,11h4.6q5.7,0,5.7-3.9c0-1.8-1-3.2-3.1-4.1a13,13,0,0,0-4.8-.7h-2.4v8.7Z" transform="translate(0 0)"/><path class="cls-1" d="M451.5,394a9.48,9.48,0,0,1-8.2-3.9,16.35,16.35,0,0,1,0-17.3,10.59,10.59,0,0,1,16.4,0,16.35,16.35,0,0,1,0,17.3A9.48,9.48,0,0,1,451.5,394Zm0-2.4a6.29,6.29,0,0,0,5.8-3.5,15.71,15.71,0,0,0,0-13.4,6.47,6.47,0,0,0-8.8-2.7h0a6.39,6.39,0,0,0-2.7,2.7,15.71,15.71,0,0,0,0,13.4A6,6,0,0,0,451.5,391.6Z" transform="translate(0 0)"/><line class="cls-3" x1="132.8" y1="76.4" x2="133" y2="167.6"/><line class="cls-3" x1="138.8" y1="74.9" x2="138.9" y2="169"/><line class="cls-3" x1="144.8" y1="73.3" x2="144.9" y2="170.4"/><line class="cls-3" x1="150.8" y1="71.8" x2="150.9" y2="171.7"/><line class="cls-3" x1="156.7" y1="70.3" x2="156.9" y2="173.1"/><line class="cls-3" x1="162.7" y1="68.8" x2="162.9" y2="174.5"/><line class="cls-3" x1="168.7" y1="67.2" x2="168.8" y2="175.9"/><line class="cls-3" x1="174.7" y1="65.7" x2="174.8" y2="177.2"/><line class="cls-3" x1="180.7" y1="64.2" x2="180.8" y2="178.6"/><line class="cls-3" x1="186.7" y1="62.6" x2="186.8" y2="180"/><line class="cls-3" x1="192.7" y1="61.1" x2="192.8" y2="181.4"/><line class="cls-3" x1="224.9" y1="73.3" x2="224.9" y2="89.5"/><line class="cls-3" x1="222.1" y1="72.2" x2="222" y2="90.2"/><line class="cls-3" x1="219.2" y1="71.1" x2="219.2" y2="90.9"/><line class="cls-3" x1="216.3" y1="70" x2="216.3" y2="91.6"/><line class="cls-3" x1="213.4" y1="68.9" x2="213.4" y2="92.3"/><line class="cls-3" x1="210.6" y1="67.8" x2="210.6" y2="93"/><line class="cls-3" x1="207.7" y1="66.7" x2="207.7" y2="93.8"/><line class="cls-3" x1="204.8" y1="65.6" x2="204.8" y2="94.5"/><line class="cls-3" x1="201.9" y1="64.4" x2="202" y2="95.2"/><line class="cls-3" x1="199" y1="63.3" x2="199.1" y2="95.9"/><line class="cls-3" x1="196.2" y1="62.2" x2="196.2" y2="96.6"/><line class="cls-2" x1="93.8" y1="116.4" x2="132.5" y2="107.5"/><line class="cls-2" x1="93.8" y1="121.6" x2="132.5" y2="114.9"/><line class="cls-2" x1="93.8" y1="126.7" x2="132.6" y2="122.3"/><line class="cls-2" x1="93.7" y1="131.9" x2="132.6" y2="129.7"/><line class="cls-2" x1="93.7" y1="137" x2="132.6" y2="137.1"/><line class="cls-2" x1="93.7" y1="142.2" x2="132.6" y2="144.5"/><line class="cls-2" x1="93.6" y1="147.3" x2="132.7" y2="151.9"/><line class="cls-2" x1="93.6" y1="152.4" x2="132.7" y2="159.3"/><line class="cls-2" x1="93.6" y1="157.6" x2="132.8" y2="166.6"/><line class="cls-4" x1="192.8" y1="96.1" x2="252.3" y2="83.5"/><line class="cls-4" x1="192.7" y1="106.7" x2="252.4" y2="97"/><line class="cls-4" x1="192.6" y1="117.2" x2="252.4" y2="110.5"/><line class="cls-4" x1="192.6" y1="127.7" x2="252.5" y2="124"/><line class="cls-4" x1="192.6" y1="138.2" x2="252.6" y2="137.5"/><line class="cls-4" x1="192.5" y1="148.8" x2="252.7" y2="150.9"/><line class="cls-4" x1="192.4" y1="159.3" x2="252.8" y2="164.4"/><line class="cls-4" x1="192.4" y1="169.9" x2="252.9" y2="177.9"/><line class="cls-4" x1="192.3" y1="180.4" x2="252.9" y2="191.4"/><line class="cls-5" x1="254.1" y1="28.3" x2="254.4" y2="192.7"/><line class="cls-5" x1="266.9" y1="24.8" x2="267.1" y2="195.1"/><line class="cls-5" x1="279.6" y1="21.2" x2="279.8" y2="197.5"/><line class="cls-5" x1="292.3" y1="17.7" x2="292.5" y2="199.9"/><line class="cls-5" x1="305.1" y1="14.2" x2="305.2" y2="202.3"/><line class="cls-5" x1="317.8" y1="10.6" x2="318" y2="204.8"/><line class="cls-5" x1="330.5" y1="7.1" x2="330.7" y2="207.2"/><line class="cls-5" x1="343.3" y1="3.5" x2="343.4" y2="209.6"/><line class="cls-5" x1="356" x2="356.1" y2="212"/><line class="cls-6" x1="407.6" y1="26.8" x2="407.5" y2="52.7"/><line class="cls-6" x1="401.8" y1="23.7" x2="401.7" y2="54"/><line class="cls-6" x1="396" y1="20.7" x2="396" y2="55.3"/><line class="cls-6" x1="390.1" y1="17.7" x2="390.2" y2="56.6"/><line class="cls-6" x1="384.4" y1="14.6" x2="384.5" y2="57.8"/><line class="cls-6" x1="378.5" y1="11.6" x2="378.8" y2="59.1"/><line class="cls-6" x1="372.7" y1="8.6" x2="373" y2="60.4"/><line class="cls-6" x1="366.9" y1="5.5" x2="367.2" y2="61.7"/><line class="cls-6" x1="361.1" y1="2.5" x2="361.5" y2="63"/><line class="cls-7" x1="355.3" y1="64.6" x2="477.1" y2="39.9"/><line class="cls-7" x1="355.2" y1="82.8" x2="476.9" y2="64.2"/><line class="cls-7" x1="355.2" y1="101" x2="477" y2="88.5"/><line class="cls-7" x1="355.1" y1="119.2" x2="477" y2="112.8"/><line class="cls-7" x1="355.1" y1="137.4" x2="477.1" y2="137.1"/><line class="cls-7" x1="355" y1="155.7" x2="477.1" y2="161.4"/><line class="cls-7" x1="355" y1="173.9" x2="477.2" y2="185.6"/><line class="cls-7" x1="355" y1="192.1" x2="477.2" y2="209.9"/><line class="cls-7" x1="354.9" y1="210.3" x2="477" y2="234.6"/><line class="cls-7" x1="538.3" y1="61.6" x2="538.3" y2="212"/><line class="cls-7" x1="528.3" y1="58.1" x2="528.3" y2="215.4"/><line class="cls-7" x1="518.3" y1="54.6" x2="518.3" y2="219.3"/><line class="cls-7" x1="508.3" y1="50.3" x2="508.3" y2="222.8"/><line class="cls-7" x1="498.3" y1="47.6" x2="498.3" y2="226.5"/><path class="cls-7" d="M488.3,43.9Z" transform="translate(0 0)"/><line class="cls-7" x1="488.3" y1="43.9" x2="488.3" y2="230.7"/><line class="cls-7" x1="478.3" y1="38.3" x2="478.3" y2="236.3"/><line class="cls-7" x1="547.3" y1="208.4" x2="547.3" y2="64.7"/></svg>