<?xml version="1.0" encoding="utf-8"?>
<!-- Generator: Adobe Illustrator 25.2.3, SVG Export Plug-In . SVG Version: 6.00 Build 0)  -->
<svg version="1.1" id="Слой_1" xmlns="http://www.w3.org/2000/svg" xmlns:xlink="http://www.w3.org/1999/xlink" x="0px" y="0px"
	 viewBox="0 0 640.9 394" style="enable-background:new 0 0 640.9 394;" xml:space="preserve">
<style type="text/css">
	.st0{fill:none;stroke:#000000;stroke-width:2;stroke-miterlimit:10;}
	.st1{fill:none;stroke:#000000;stroke-width:1.3;stroke-miterlimit:10;}
	.st2{fill:none;stroke:#000000;stroke-width:2.6;stroke-miterlimit:10;}
	.st3{fill:none;stroke:#000000;stroke-width:3.4;stroke-miterlimit:10;}
	.st4{fill:none;stroke:#000000;stroke-width:2.2;stroke-miterlimit:10;}
	.st5{fill:none;stroke:#000000;stroke-width:3.5;stroke-miterlimit:10;}
</style>
<path d="M39,262.8v4.2H5.1v69.3H0v-73.5H39z"/>
<path d="M100.6,262.8v4.1H61v30.5h39.5v4.1H61v30.6h39.5v4.1H56v-73.5L100.6,262.8L100.6,262.8z"/>
<path d="M181.8,272.8c14.2,14.9,14.2,38.4,0,53.3c-13.4,14.2-35.7,14.8-49.9,1.4c-0.5-0.5-0.9-0.9-1.4-1.4
	c-14.2-14.9-14.2-38.4,0-53.3c13.4-14.2,35.7-14.8,49.9-1.4C180.8,271.8,181.3,272.3,181.8,272.8z M156.1,265.9
	c-8.6-0.1-16.9,3.5-22.8,9.8c-12.6,13.3-12.6,34.1,0,47.4c11.9,12.6,31.7,13.2,44.3,1.3l0,0c0.4-0.4,0.9-0.9,1.3-1.3
	c12.6-13.3,12.6-34.1,0-47.4C173,269.4,164.7,265.8,156.1,265.9z"/>
<path d="M218.2,262.8l33.5,47.8l33.4-47.8h5.7l-0.2,0.3v73.2h-5v-66l-33.9,48.4l-34-48.4v66h-5v-73.2l-0.2-0.3H218.2z"/>
<path d="M357.5,262.8v4.1H318v30.5h39.5v4.1H318v30.6h39.5v4.1H313v-73.5L357.5,262.8L357.5,262.8z"/>
<path d="M400.1,266.9v69.4h-5v-69.4h-22.6v-4.1h50.1v4.1H400.1z"/>
<path d="M444.2,310.8v25.5h-5v-73.5h23.4c6.3,0.6,12.4,3,17.3,7c5.7,4.7,8.5,10.3,8.5,17c0,6.6-2.8,12.3-8.5,17
	c-5.8,4.7-13.1,7.2-20.5,7H444.2z M444.2,267v39.6h15.2c6.2,0.2,12.2-1.9,17-5.8c4.7-3.9,7-8.5,7-14s-2.3-10.1-7-14
	c-4.8-3.9-10.8-5.9-17-5.8L444.2,267z"/>
<path d="M574.3,262.8v73.5h-5v-66.8l-57.9,66.8h-7.8v-73.5h5.1v68.4l59.2-68.4H574.3z"/>
<path d="M599.3,336.2h-6.2l20.5-26.1c-5-1-9.6-3.2-13.5-6.4c-5.7-4.7-8.5-10.3-8.5-17s2.8-12.3,8.5-17c5-4,11-6.4,17.3-7h23.4v73.5
	h-5.1v-25.5h-16.6L599.3,336.2z M620.7,267c-6.2-0.2-12.2,1.9-17,5.8c-4.7,3.8-7,8.5-7,14s2.4,10.2,7,14c4.8,3.9,10.8,6,17,5.8h15.1
	V267H620.7z"/>
<line class="st0" x1="0" y1="353.9" x2="640.9" y2="356"/>
<path d="M173.4,388.2h3v0.2c0,1-0.4,2-1,2.8c-1.3,1.9-3.6,2.8-6.9,2.8c-3.7,0-6.5-1.3-8.3-3.8c-3.3-5.4-3.3-12.2,0-17.5
	c1.9-2.5,4.7-3.8,8.4-3.8c3.3,0,5.6,0.9,6.9,2.8c0.6,0.8,1,1.8,1,2.8v0.2h-3v-0.2c0-1.1-0.6-2.1-1.6-2.6c-3.3-1.6-7.3-0.5-9.2,2.6
	c-2.1,4.3-2.1,9.4,0,13.7c1.2,2.2,3.5,3.5,6,3.3c1.1,0,2.2-0.2,3.2-0.7S173.5,389.3,173.4,388.2L173.4,388.2z"/>
<path d="M188.9,393.3v-21.1h-8.5v-2.6h20.1v2.6h-8.4v21.1H188.9z"/>
<path d="M208.9,393.3h-3.2v-23.7h7c1.9-0.1,3.8,0.1,5.6,0.8c2.2,1,3.3,3,3.3,5.7c0.1,2.3-0.9,4.5-2.8,5.9c-2,1.4-4.3,2-6.7,1.9H209
	v9.4H208.9z M208.9,381.6h2.2c1.7,0.1,3.5-0.3,5-1.1c1.4-1,2.1-2.6,2-4.3c0.1-1.3-0.5-2.6-1.5-3.4c-1.2-0.6-2.6-0.9-3.9-0.8H209v9.6
	H208.9z"/>
<path d="M237,394c-3.2,0.2-6.3-1.3-8.2-3.9c-3.3-5.3-3.3-12,0-17.3c3.7-4.5,10.3-5.2,14.9-1.5c0.5,0.4,1,0.9,1.5,1.5
	c3.3,5.3,3.3,12,0,17.3C243.3,392.7,240.2,394.2,237,394z M237,391.6c2.4,0.1,4.7-1.3,5.8-3.5c2-4.3,2-9.2,0-13.4
	c-1.7-3.2-5.6-4.4-8.8-2.7l0,0c-1.2,0.6-2.1,1.6-2.7,2.7c-2,4.3-2,9.2,0,13.4C232.3,390.3,234.6,391.7,237,391.6z"/>
<path d="M272.3,393.3h-3.2l0.1-19.3l-12.3,19.3h-3.1v-23.7h3.2l-0.2,19.4l12.2-19.4h3.2L272.3,393.3z"/>
<path d="M286,393.3v-21.1h-8.5v-2.6h20.1v2.6h-8.4v21.1H286z"/>
<path d="M302.8,393.3v-23.7h14.1v2.6H306v7.5h9.5v2.4H306v8.6h11.7v2.6H302.8z"/>
<path d="M321.8,390.8c0.7,0.1,1.3,0.2,2,0.2c1.5,0.1,2.9-0.9,3.3-2.3s0.6-2.8,0.5-4.3v-14.8h14.6v23.7h-3.3v-21.1h-8.1v12.2
	c0,6-2.2,9-6.6,9c-0.8,0-1.6-0.1-2.5-0.3L321.8,390.8z"/>
<path d="M365.2,386.8c0,2.8-1.1,4.7-3.3,5.7c-1.8,0.6-3.7,0.9-5.6,0.8h-7.1v-23.7h3.3v9.3h3.3c2.4-0.1,4.8,0.6,6.7,1.9
	C364.3,382.3,365.3,384.5,365.2,386.8z M361.9,386.6c0.1-1.7-0.6-3.3-2-4.3c-1.5-0.8-3.3-1.2-5-1.1h-2.4v9.6h3.9
	c1.4,0.1,2.8-0.2,4-0.9C361.5,389.2,362,388,361.9,386.6z"/>
<path d="M386.1,388.2h3v0.2c0,1-0.4,2-1,2.8c-1.3,1.9-3.6,2.8-6.9,2.8c-3.7,0-6.5-1.3-8.3-3.8c-3.3-5.4-3.3-12.2,0-17.5
	c1.9-2.5,4.7-3.8,8.4-3.8c3.3,0,5.6,0.9,6.9,2.8c0.6,0.8,1,1.8,1,2.8v0.2h-3v-0.2c0-1.1-0.6-2.1-1.6-2.6c-3.3-1.6-7.3-0.5-9.2,2.6
	c-2.1,4.3-2.1,9.4,0,13.7c1.2,2.2,3.5,3.5,6,3.3c1.1,0,2.2-0.2,3.2-0.7s1.6-1.5,1.6-2.6L386.1,388.2z"/>
<path d="M401.6,393.3v-21.1h-8.5v-2.6h20.1v2.6h-8.3v21.1H401.6z"/>
<path d="M429.7,380.8c3.8,0.9,5.6,2.9,5.6,6c0,2.4-1.3,4.6-3.5,5.6c-1.1,0.6-3.1,0.9-5.8,0.9h-7.5v-23.7h6.6
	c2.1-0.1,4.1,0.1,6.1,0.6c1.9,0.6,3.2,2.5,3.1,4.5C434.3,377.3,432.8,379.3,429.7,380.8z M421.7,379.9h3.1c1.2,0.1,2.5-0.1,3.6-0.6
	c0.8-0.4,1.4-1,1.9-1.7s0.7-1.5,0.7-2.4c0-2.1-1.7-3.2-5.2-3.2h-4.2v7.9H421.7z M421.7,390.9h4.6c3.8,0,5.7-1.3,5.7-3.9
	c0-1.8-1-3.2-3.1-4.1c-1.5-0.5-3.2-0.8-4.8-0.7h-2.4L421.7,390.9L421.7,390.9z"/>
<path d="M451.5,394c-3.2,0.2-6.3-1.3-8.2-3.9c-3.3-5.3-3.3-12,0-17.3c3.7-4.5,10.3-5.2,14.9-1.5c0.5,0.4,1,0.9,1.5,1.5
	c3.3,5.3,3.3,12,0,17.3C457.8,392.7,454.7,394.2,451.5,394z M451.5,391.6c2.4,0.1,4.7-1.3,5.8-3.5c2-4.3,2-9.2,0-13.4
	c-1.7-3.2-5.6-4.4-8.8-2.7l0,0c-1.2,0.6-2.1,1.6-2.7,2.7c-2,4.3-2,9.2,0,13.4C446.8,390.3,449.1,391.7,451.5,391.6z"/>
<line class="st1" x1="132.8" y1="76.4" x2="133" y2="167.6"/>
<line class="st1" x1="138.8" y1="74.9" x2="138.9" y2="169"/>
<line class="st1" x1="144.8" y1="73.3" x2="144.9" y2="170.4"/>
<line class="st1" x1="150.8" y1="71.8" x2="150.9" y2="171.7"/>
<line class="st1" x1="156.7" y1="70.3" x2="156.9" y2="173.1"/>
<line class="st1" x1="162.7" y1="68.8" x2="162.9" y2="174.5"/>
<line class="st1" x1="168.7" y1="67.2" x2="168.8" y2="175.9"/>
<line class="st1" x1="174.7" y1="65.7" x2="174.8" y2="177.2"/>
<line class="st1" x1="180.7" y1="64.2" x2="180.8" y2="178.6"/>
<line class="st1" x1="186.7" y1="62.6" x2="186.8" y2="180"/>
<line class="st1" x1="192.7" y1="61.1" x2="192.8" y2="181.4"/>
<line class="st1" x1="224.9" y1="73.3" x2="224.9" y2="89.5"/>
<line class="st1" x1="222.1" y1="72.2" x2="222" y2="90.2"/>
<line class="st1" x1="219.2" y1="71.1" x2="219.2" y2="90.9"/>
<line class="st1" x1="216.3" y1="70" x2="216.3" y2="91.6"/>
<line class="st1" x1="213.4" y1="68.9" x2="213.4" y2="92.3"/>
<line class="st1" x1="210.6" y1="67.8" x2="210.6" y2="93"/>
<line class="st1" x1="207.7" y1="66.7" x2="207.7" y2="93.8"/>
<line class="st1" x1="204.8" y1="65.6" x2="204.8" y2="94.5"/>
<line class="st1" x1="201.9" y1="64.4" x2="202" y2="95.2"/>
<line class="st1" x1="199" y1="63.3" x2="199.1" y2="95.9"/>
<line class="st1" x1="196.2" y1="62.2" x2="196.2" y2="96.6"/>
<line class="st0" x1="93.8" y1="116.4" x2="132.5" y2="107.5"/>
<line class="st0" x1="93.8" y1="121.6" x2="132.5" y2="114.9"/>
<line class="st0" x1="93.8" y1="126.7" x2="132.6" y2="122.3"/>
<line class="st0" x1="93.7" y1="131.9" x2="132.6" y2="129.7"/>
<line class="st0" x1="93.7" y1="137" x2="132.6" y2="137.1"/>
<line class="st0" x1="93.7" y1="142.2" x2="132.6" y2="144.5"/>
<line class="st0" x1="93.6" y1="147.3" x2="132.7" y2="151.9"/>
<line class="st0" x1="93.6" y1="152.4" x2="132.7" y2="159.3"/>
<line class="st0" x1="93.6" y1="157.6" x2="132.8" y2="166.6"/>
<line class="st2" x1="192.8" y1="96.1" x2="252.3" y2="83.5"/>
<line class="st2" x1="192.7" y1="106.7" x2="252.4" y2="97"/>
<line class="st2" x1="192.6" y1="117.2" x2="252.4" y2="110.5"/>
<line class="st2" x1="192.6" y1="127.7" x2="252.5" y2="124"/>
<line class="st2" x1="192.6" y1="138.2" x2="252.6" y2="137.5"/>
<line class="st2" x1="192.5" y1="148.8" x2="252.7" y2="150.9"/>
<line class="st2" x1="192.4" y1="159.3" x2="252.8" y2="164.4"/>
<line class="st2" x1="192.4" y1="169.9" x2="252.9" y2="177.9"/>
<line class="st2" x1="192.3" y1="180.4" x2="252.9" y2="191.4"/>
<line class="st3" x1="254.1" y1="28.3" x2="254.4" y2="192.7"/>
<line class="st3" x1="266.9" y1="24.8" x2="267.1" y2="195.1"/>
<line class="st3" x1="279.6" y1="21.2" x2="279.8" y2="197.5"/>
<line class="st3" x1="292.3" y1="17.7" x2="292.5" y2="199.9"/>
<line class="st3" x1="305.1" y1="14.2" x2="305.2" y2="202.3"/>
<line class="st3" x1="317.8" y1="10.6" x2="318" y2="204.8"/>
<line class="st3" x1="330.5" y1="7.1" x2="330.7" y2="207.2"/>
<line class="st3" x1="343.3" y1="3.5" x2="343.4" y2="209.6"/>
<line class="st3" x1="356" y1="0" x2="356.1" y2="212"/>
<line class="st4" x1="407.6" y1="26.8" x2="407.5" y2="52.7"/>
<line class="st4" x1="401.8" y1="23.7" x2="401.7" y2="54"/>
<line class="st4" x1="396" y1="20.7" x2="396" y2="55.3"/>
<line class="st4" x1="390.1" y1="17.7" x2="390.2" y2="56.6"/>
<line class="st4" x1="384.4" y1="14.6" x2="384.5" y2="57.8"/>
<line class="st4" x1="378.5" y1="11.6" x2="378.8" y2="59.1"/>
<line class="st4" x1="372.7" y1="8.6" x2="373" y2="60.4"/>
<line class="st4" x1="366.9" y1="5.5" x2="367.2" y2="61.7"/>
<line class="st4" x1="361.1" y1="2.5" x2="361.5" y2="63"/>
<line class="st5" x1="355.3" y1="64.6" x2="477.1" y2="39.9"/>
<line class="st5" x1="355.2" y1="82.8" x2="476.9" y2="64.2"/>
<line class="st5" x1="355.2" y1="101" x2="477" y2="88.5"/>
<line class="st5" x1="355.1" y1="119.2" x2="477" y2="112.8"/>
<line class="st5" x1="355.1" y1="137.4" x2="477.1" y2="137.1"/>
<line class="st5" x1="355" y1="155.7" x2="477.1" y2="161.4"/>
<line class="st5" x1="355" y1="173.9" x2="477.2" y2="185.6"/>
<line class="st5" x1="355" y1="192.1" x2="477.2" y2="209.9"/>
<line class="st5" x1="354.9" y1="210.3" x2="477" y2="234.6"/>
<line class="st5" x1="538.3" y1="61.6" x2="538.3" y2="212"/>
<line class="st5" x1="528.3" y1="58.1" x2="528.3" y2="215.4"/>
<line class="st5" x1="518.3" y1="54.6" x2="518.3" y2="219.3"/>
<line class="st5" x1="508.3" y1="50.3" x2="508.3" y2="222.8"/>
<line class="st5" x1="498.3" y1="47.6" x2="498.3" y2="226.5"/>
<path class="st5" d="M488.3,43.9L488.3,43.9z"/>
<g>
	<line class="st5" x1="488.3" y1="43.9" x2="488.3" y2="230.7"/>
</g>
<g>
	<line class="st5" x1="478.3" y1="38.3" x2="478.3" y2="236.3"/>
</g>
<line class="st5" x1="547.3" y1="208.4" x2="547.3" y2="64.7"/>
</svg>
